<?xml version="1.0" standalone="no"?>
<!DOCTYPE svg PUBLIC "-//W3C//DTD SVG 20010904//EN"
 "http://www.w3.org/TR/2001/REC-SVG-20010904/DTD/svg10.dtd">
<svg version="1.0" xmlns="http://www.w3.org/2000/svg"
 width="105.000000pt" height="105.000000pt" viewBox="0 0 105.000000 105.000000"
 preserveAspectRatio="xMidYMid meet">
<metadata>
Created by potrace 1.11, written by Peter Selinger 2001-2013
</metadata>
<g transform="translate(0.000000,105.000000) scale(0.100000,-0.100000)"
fill="#000000" stroke="none">
<path d="M222 764 c-12 -8 -20 -20 -17 -25 9 -13 -2 -11 -35 6 -25 13 -32 13
-57 0 -15 -8 -22 -15 -15 -16 21 -2 27 -4 47 -16 18 -11 15 -12 -21 -13 -31 0
-50 -7 -75 -29 -30 -26 -24 -38 8 -18 6 4 15 3 18 -3 4 -6 3 -10 -2 -9 -16 2
-53 -13 -48 -21 3 -4 -2 -13 -10 -20 -8 -7 -15 -21 -15 -31 0 -16 4 -15 45 8
25 13 47 29 50 34 4 5 11 9 16 9 6 0 -1 -14 -15 -31 -31 -36 -56 -92 -56 -123
1 -19 2 -19 17 6 9 15 27 32 39 38 12 7 26 22 32 34 8 18 10 16 10 -15 0 -31
29 -115 37 -107 2 2 5 32 9 67 3 36 10 69 15 74 11 11 28 -17 35 -59 2 -16 5
-29 6 -29 1 0 3 -9 5 -21 3 -12 18 -63 36 -114 36 -109 32 -120 -47 -125 -70
-3 -74 -4 -74 -13 0 -4 97 -8 215 -8 168 0 215 3 215 13 0 7 -26 20 -57 29
-32 9 -60 19 -63 23 -3 3 -14 11 -25 17 -24 14 -23 44 2 124 15 47 24 60 61
83 55 34 68 34 44 0 -16 -24 -35 -73 -28 -73 2 0 16 11 32 25 l29 25 16 -33
c10 -17 15 -36 12 -41 -4 -5 -1 -6 5 -2 7 4 12 15 12 25 0 30 22 83 31 74 4
-4 11 -23 14 -42 3 -19 8 -37 10 -41 2 -3 6 -17 8 -31 3 -13 14 -47 26 -76 17
-43 18 -52 6 -57 -8 -3 -15 -13 -15 -23 0 -16 11 -18 115 -16 63 1 120 5 126
9 8 4 9 3 5 -4 -4 -7 -2 -12 3 -12 6 0 11 4 11 8 0 5 18 7 40 5 23 -2 40 0 40
6 0 6 -18 9 -42 7 -24 -2 -59 3 -77 10 -19 8 -41 12 -48 10 -7 -3 -13 -2 -13
3 0 4 -11 13 -24 21 -19 9 -23 19 -20 39 7 42 25 94 40 118 8 13 11 23 8 23
-4 0 1 9 12 21 10 12 18 23 17 25 -2 2 0 4 4 5 9 1 43 -61 43 -78 0 -7 5 -13
10 -13 10 0 13 19 12 73 0 15 2 27 5 27 3 0 21 -17 39 -37 34 -36 34 -37 34
-11 0 14 -9 37 -21 52 -11 14 -15 26 -9 26 14 0 -5 21 -35 38 -19 11 -18 12
10 13 17 1 33 1 38 0 14 -2 7 17 -10 25 -27 11 -56 11 -73 0 -13 -10 -13 -9
-1 7 18 23 8 33 -13 11 -16 -15 -18 -14 -39 10 -13 15 -26 23 -30 20 -4 -4 -2
-13 4 -20 18 -22 0 -36 -24 -19 -24 17 -65 19 -87 5 -18 -11 -10 -21 19 -23
11 -1 21 -5 21 -9 0 -4 8 -8 17 -8 16 0 16 -1 0 -17 -17 -17 -19 -17 -27 -2
-9 15 -54 35 -72 31 -4 -1 -5 5 -1 14 5 13 8 13 15 2 7 -9 8 -8 4 5 -3 10 -6
21 -6 23 0 3 -9 0 -20 -6 -22 -12 -27 -1 -7 19 10 10 7 11 -16 7 -15 -3 -42 2
-60 9 -18 8 -25 15 -17 16 51 5 77 3 89 -6 12 -8 12 -6 2 12 -16 30 -43 44
-81 39 -23 -3 -30 0 -26 10 8 22 -10 25 -30 5 -18 -18 -20 -17 -46 13 -21 25
-29 29 -39 19 -10 -10 -10 -13 -1 -13 7 0 12 -9 12 -20 0 -24 -3 -24 -38 -6
-30 15 -83 14 -122 -1 -24 -10 -24 -10 -3 -21 11 -6 23 -8 27 -5 10 10 74 -29
69 -43 -5 -13 -43 -10 -52 4 -3 5 -24 15 -46 23 -53 18 -52 16 -25 39 l23 20
-30 -4 c-17 -1 -36 -7 -44 -11 -8 -5 -3 4 10 18 23 25 23 27 5 27 -11 0 -30
-7 -42 -16z m210 -173 c-8 -4 -13 -12 -12 -17 1 -5 -3 -10 -9 -12 -15 -5 -14
25 2 31 20 9 33 7 19 -2z m-82 -68 c0 -7 4 -13 9 -13 5 0 8 16 6 35 -1 19 1
35 5 35 17 0 39 -38 35 -59 -2 -13 0 -31 5 -40 8 -14 9 -14 10 2 0 10 7 20 15
23 8 4 13 9 10 14 -2 4 8 18 23 31 14 13 21 16 13 7 -7 -9 -9 -23 -5 -30 4 -7
3 -10 -1 -5 -10 8 -78 -126 -83 -163 -2 -13 -7 -30 -13 -36 -5 -6 -6 -14 -2
-17 3 -4 -1 -7 -10 -7 -9 0 -26 18 -38 43 -12 23 -25 44 -29 47 -7 5 -28 71
-36 115 -3 19 -2 19 16 -2 24 -31 30 -29 26 7 -2 22 1 30 13 30 11 0 10 4 -7
16 -12 8 -22 20 -22 26 0 7 14 -1 30 -17 17 -16 30 -35 30 -42z m174 12 c-9
-14 -20 -25 -25 -25 -5 0 1 11 13 25 12 14 23 25 25 25 2 0 -4 -11 -13 -25z
m299 -42 c-16 -6 -17 -73 -2 -73 5 0 7 5 4 10 -3 6 -2 10 3 10 5 0 12 9 15 20
5 20 27 28 27 10 0 -5 -4 -10 -9 -10 -9 0 -35 -58 -32 -72 0 -5 -3 -8 -8 -8
-10 0 -24 -38 -22 -58 1 -7 -5 -19 -13 -27 -11 -12 -16 -12 -25 -1 -6 7 -8 16
-4 19 3 4 2 7 -4 7 -9 0 -32 39 -39 65 -15 56 -16 78 -5 71 6 -4 9 -12 6 -17
-3 -5 1 -6 9 -3 11 4 14 14 9 37 -3 19 -2 29 3 24 5 -5 9 -14 9 -20 0 -7 9
-13 19 -15 15 -3 18 0 13 17 -3 12 -1 21 4 21 5 0 9 -5 9 -11 0 -6 7 -3 16 6
9 9 19 13 23 9 3 -4 0 -9 -6 -11z"/>
<path d="M635 210 c-11 -5 -17 -9 -12 -11 22 -5 33 -4 46 5 12 9 13 8 7 -3 -6
-9 -5 -12 4 -9 8 2 15 9 17 14 4 12 -36 15 -62 4z"/>
</g>
</svg>
